<svg width="296" height="296" viewBox="0 0 296 296" fill="none" xmlns="http://www.w3.org/2000/svg">
<path d="M83.9732 151.785L85.1532 151.915C95.0416 153.006 104.8 148.735 110.305 140.557C111.014 139.505 111.645 138.403 112.193 137.259C114.124 133.07 114.99 128.468 114.715 123.863C114.44 119.259 113.033 114.793 110.618 110.863C107.732 106.249 103.408 102.249 102.393 96.9269C101.083 90.0062 105.803 83.5988 110.24 78.1826C114.677 72.7664 119.385 66.3472 118.04 59.4265C117.202 55.0959 114.034 51.491 110.37 48.9717C100.688 42.3106 87.3893 42.3932 76.9109 47.4554C66.4325 52.5176 58.6209 61.9399 53.4761 72.3593C46.3017 86.9559 44.0361 104.361 49.2989 119.896C54.5617 135.43 67.8662 148.587 83.9732 151.785Z" fill="#F5F5F5"/>
<path d="M225.933 43.0419C216.93 30.6106 203.554 21.6308 187.99 22.6102L188.857 22.5689C186.683 22.3936 184.496 22.6771 182.438 23.4008L182.285 23.4303H182.385C175.402 25.5261 169.511 30.2632 165.965 36.6345C163.63 41.1105 162.548 46.1347 162.835 51.1752C163.122 56.2157 164.766 61.0849 167.594 65.2672C170.992 70.1524 176.031 74.0228 178.09 79.6042C180.409 85.8877 178.438 92.9736 179.783 99.5344C182.297 111.848 196.852 119.193 209.112 116.432C221.372 113.671 230.718 103.021 234.972 91.1918C240.795 74.9786 236.016 56.9718 225.933 43.0419Z" fill="#F5F5F5"/>
<path d="M189.288 173.662C200.735 173.662 210.015 164.383 210.015 152.936C210.015 141.489 200.735 132.209 189.288 132.209C177.841 132.209 168.561 141.489 168.561 152.936C168.561 164.383 177.841 173.662 189.288 173.662Z" fill="#F5F5F5"/>
<path d="M102.588 251.843H66.816V256.757H102.588V251.843Z" fill="#263238"/>
<path d="M102.653 256.816H66.757V251.777H102.653V256.816ZM66.8809 256.692H102.529V251.901H66.8809V256.692Z" fill="#263238"/>
<path d="M70.1318 255.117L75.2825 280.523H94.3336L99.3132 256.757L70.1318 255.117Z" fill="#263238"/>
<path d="M70.1318 278.121L72.8812 281.897H96.0387L99.3132 278.121H70.1318Z" fill="#455A64"/>
<path d="M83.3596 255.86C83.2888 255.86 83.2003 244.09 83.159 229.576C83.1177 215.062 83.159 203.291 83.2121 203.291C83.2652 203.291 83.3714 215.056 83.4127 229.576C83.454 244.095 83.4304 255.86 83.3596 255.86Z" fill="#263238"/>
<path d="M91.36 226.407C91.3351 226.503 91.3015 226.595 91.2597 226.685L90.9411 227.446L90.711 227.994C90.6343 228.201 90.5576 228.425 90.4691 228.661C90.3806 228.897 90.2921 229.157 90.1977 229.428C90.1033 229.699 90.0266 230.018 89.9322 230.301C89.5076 231.738 89.1726 233.2 88.9292 234.679C88.6516 236.495 88.4665 238.325 88.3746 240.16C88.243 243.506 88.3376 246.857 88.6578 250.19C88.7758 251.465 88.8879 252.497 88.9764 253.211C89.0118 253.541 89.0413 253.801 89.0649 254.031C89.0728 254.127 89.0728 254.224 89.0649 254.32C89.0276 254.23 89.0057 254.134 89 254.037C88.9587 253.825 88.9174 253.553 88.8584 253.223C88.7463 252.515 88.5988 251.482 88.4631 250.208C88.0897 246.878 87.9693 243.525 88.1032 240.178C88.1973 238.333 88.3943 236.496 88.6932 234.673C88.9443 233.185 89.2991 231.716 89.7552 230.278C89.8555 229.971 89.9322 229.688 90.0384 229.404C90.1446 229.121 90.239 228.879 90.3334 228.643C90.4278 228.407 90.5104 228.183 90.593 227.977C90.6756 227.77 90.77 227.599 90.8467 227.434C90.9942 227.133 91.1122 226.885 91.2125 226.69C91.2464 226.589 91.2962 226.493 91.36 226.407Z" fill="#263238"/>
<path d="M90.416 216.92C90.3847 217.052 90.3453 217.182 90.298 217.309C90.2095 217.581 90.0856 217.947 89.9263 218.401C89.8437 218.643 89.7552 218.908 89.6549 219.191C89.5546 219.475 89.472 219.781 89.3658 220.141C89.1593 220.826 88.9174 221.599 88.6991 222.466C88.587 222.903 88.4631 223.357 88.3392 223.829C88.2153 224.301 88.1209 224.802 88.0029 225.316C87.7551 226.342 87.5781 227.451 87.3421 228.614C86.9527 230.974 86.6046 233.534 86.3627 236.284C86.1208 239.033 86.0382 241.594 86.0028 243.989C85.9674 246.385 86.0028 248.503 86.1267 250.29C86.1562 251.187 86.2152 251.995 86.2624 252.709C86.3096 253.423 86.345 254.031 86.3922 254.532C86.4394 255.034 86.4571 255.4 86.4807 255.683C86.4911 255.818 86.4911 255.955 86.4807 256.09C86.4467 255.959 86.425 255.824 86.4158 255.689C86.3804 255.406 86.3391 255.022 86.2801 254.544C86.2211 254.066 86.1621 253.429 86.109 252.721C86.0559 252.013 85.9733 251.199 85.932 250.302C85.814 248.532 85.7609 246.367 85.755 243.989C85.7491 241.611 85.873 238.998 86.0972 236.266C86.3214 233.534 86.6872 230.956 87.1002 228.596C87.3362 227.416 87.525 226.319 87.7846 225.292C87.9065 224.777 88.0245 224.281 88.1386 223.805C88.2684 223.333 88.3923 222.879 88.5162 222.442C88.7404 221.575 88.9941 220.802 89.2183 220.124C89.3304 219.787 89.4307 219.469 89.5251 219.174C89.6195 218.879 89.7316 218.631 89.8201 218.395C89.9971 217.941 90.1387 217.581 90.239 217.315C90.2845 217.178 90.3438 217.045 90.416 216.92Z" fill="#263238"/>
<path d="M81.0999 257.944C81.094 257.898 81.094 257.853 81.0999 257.808C81.0999 257.702 81.0881 257.566 81.0645 257.401C81.0645 257.023 81.0055 256.504 80.9642 255.843C80.8757 254.468 80.7518 252.516 80.6043 250.108C80.2916 245.27 79.8432 238.586 79.029 231.228C78.616 227.553 78.1322 224.06 77.6307 220.892C77.3652 219.316 77.1233 217.812 76.846 216.413C76.5687 215.015 76.3209 213.711 76.0731 212.525C75.8253 211.339 75.5775 210.272 75.3651 209.333C75.1527 208.395 74.958 207.563 74.7751 206.926C74.5922 206.289 74.4919 205.776 74.4034 205.41C74.3621 205.251 74.3326 205.121 74.309 205.015C74.2854 204.908 74.309 204.879 74.309 204.879C74.3337 204.919 74.3516 204.963 74.3621 205.009L74.4742 205.398L74.84 206.891C75.0229 207.546 75.2353 208.348 75.43 209.286C75.6247 210.224 75.9256 211.286 76.1734 212.472C76.4212 213.658 76.7162 214.956 76.9758 216.36C77.2354 217.765 77.5127 219.263 77.7841 220.844C78.2974 224.013 78.7871 227.505 79.206 231.187C80.0202 238.544 80.4391 245.241 80.7046 250.067C80.8403 252.492 80.9288 254.451 80.9819 255.808C81.0114 256.469 81.0291 256.988 81.0409 257.371C81.0409 257.536 81.0409 257.666 81.0409 257.772C81.0646 257.828 81.0843 257.885 81.0999 257.944Z" fill="#263238"/>
<path d="M83.1 208.949C82.9407 207.285 81.2592 205.999 79.56 205.999C78.7215 206.038 77.9027 206.267 77.165 206.667C76.4273 207.068 75.7898 207.63 75.3002 208.312C74.3359 209.688 73.6394 211.233 73.247 212.867C72.0289 216.781 71.6017 220.898 71.9903 224.979C72.4682 229.039 74.1143 233.033 77.0289 235.9C77.5009 236.366 78.1145 236.832 78.7635 236.691C79.1161 236.581 79.4322 236.377 79.678 236.101C82.5299 233.492 84.7908 230.303 86.309 226.749C87.8273 223.194 88.5678 219.356 88.4808 215.492C88.4336 213.946 88.233 212.342 87.3775 211.055C86.522 209.769 84.5278 208.406 83.0764 208.92" fill="#455A64"/>
<path d="M83.2121 203.291L61.9721 190.742C61.7386 190.639 61.5529 190.452 61.4529 190.217C61.3703 189.904 61.6063 189.627 61.8364 189.367C63.2983 187.85 65.0701 186.666 67.0311 185.895C68.992 185.124 71.096 184.785 73.1998 184.901C75.3031 185.051 77.3382 185.711 79.129 186.825C80.9197 187.938 82.4123 189.471 83.4776 191.291C85.5308 194.961 85.5957 199.81 83.2416 203.291" fill="#455A64"/>
<path d="M65.0106 186.736L65.2879 186.701C65.4708 186.701 65.7422 186.659 66.0903 186.665C67.0787 186.649 68.0664 186.726 69.0403 186.895C72.2842 187.445 75.3036 188.909 77.7432 191.117C80.1828 193.325 81.941 196.183 82.8109 199.356C83.0738 200.308 83.2496 201.281 83.336 202.265C83.3462 202.461 83.3462 202.658 83.336 202.855C83.3204 203.021 83.2658 203.18 83.1767 203.321C83.2313 202.965 83.2313 202.603 83.1767 202.247C83.0587 201.275 82.8614 200.314 82.5867 199.374C81.6941 196.251 79.9449 193.441 77.5371 191.262C75.1294 189.082 72.1594 187.621 68.9636 187.043C67.99 186.861 67.0036 186.757 66.0136 186.73C65.4 186.748 65.0106 186.76 65.0106 186.736Z" fill="#263238"/>
<path d="M80.3329 194.63C79.9951 194.834 79.6347 194.998 79.2591 195.12C78.5806 195.385 77.6366 195.71 76.5746 196.064C75.5126 196.418 74.545 196.654 73.837 196.842C73.4539 196.963 73.0577 197.036 72.657 197.061C73.0146 196.892 73.3882 196.76 73.7721 196.665L76.4802 195.822L79.1824 194.948C79.5532 194.801 79.939 194.694 80.3329 194.63Z" fill="#263238"/>
<path d="M76.9817 185.65C77.1734 186.422 77.2588 187.216 77.2354 188.01C77.2941 188.799 77.2504 189.593 77.1056 190.37C77.0031 189.588 76.9617 188.799 76.9817 188.01C76.9187 187.225 76.9187 186.436 76.9817 185.65Z" fill="#263238"/>
<path d="M61.7597 190.506C62.2571 190.278 62.7746 190.096 63.3055 189.963C64.2672 189.663 65.6124 189.285 67.1169 188.925C68.6214 188.565 69.9843 188.288 70.9814 188.111C71.5145 187.989 72.0576 187.916 72.6039 187.893C72.0851 188.062 71.5547 188.195 71.0168 188.288C70.0315 188.506 68.6568 188.813 67.1759 189.173C65.695 189.533 64.3321 189.881 63.3527 190.135C62.8313 190.296 62.2989 190.421 61.7597 190.506Z" fill="#263238"/>
<path d="M74.25 205.333C72.421 203.946 70.4917 203.675 68.1966 203.763C65.8988 203.916 63.6498 204.496 61.565 205.474C57.9778 207.044 54.6089 209.362 52.4672 212.637C50.3255 215.911 49.5762 220.254 51.181 223.847C51.3057 224.22 51.5643 224.533 51.9067 224.726C52.2985 224.833 52.7152 224.801 53.0867 224.637C57.1636 223.304 61.27 221.965 65.0224 219.876C68.7748 217.787 72.185 214.896 74.1969 211.109C74.7169 210.216 75.0464 209.226 75.1645 208.2C75.2195 207.687 75.1643 207.167 75.0025 206.677C74.8407 206.186 74.5761 205.736 74.2264 205.356" fill="#455A64"/>
<path d="M74.2795 204.902C74.1842 204.949 74.0856 204.988 73.9845 205.02L73.129 205.315L72.539 205.522L71.8192 205.805C71.3 206.012 70.7041 206.224 70.0492 206.525L69.0462 206.985C68.6981 207.144 68.3559 207.339 67.9842 207.528C67.2467 207.888 66.4974 208.354 65.7009 208.826C62.2803 210.946 59.2374 213.622 56.6975 216.744C56.1075 217.469 55.5765 218.154 55.1222 218.844C54.8862 219.18 54.6502 219.499 54.4437 219.823C54.2372 220.148 54.0543 220.461 53.8537 220.756C53.4702 221.346 53.187 221.936 52.9156 222.396C52.7799 222.644 52.6501 222.868 52.5439 223.08L52.2607 223.67C52.0955 224.007 51.9657 224.26 51.8595 224.479C51.8184 224.576 51.7669 224.669 51.7061 224.756C51.7293 224.654 51.765 224.554 51.8123 224.461L52.1722 223.629C52.2509 223.444 52.3394 223.247 52.4377 223.039C52.538 222.827 52.6619 222.596 52.7917 222.349C53.0513 221.853 53.3227 221.281 53.7003 220.685L54.2903 219.735C54.4909 219.405 54.7269 219.086 54.957 218.738C55.4113 218.042 55.96 217.351 56.5264 216.608C57.7954 215.034 59.1841 213.561 60.68 212.201C62.2088 210.88 63.8382 209.681 65.5534 208.613C66.3617 208.147 67.1169 207.687 67.8662 207.327C68.2379 207.144 68.586 206.95 68.94 206.796L69.9489 206.348C70.592 206.053 71.1997 205.858 71.7189 205.658C71.9844 205.563 72.2263 205.469 72.4505 205.398L73.0818 205.209L73.9491 204.961C74.0572 204.932 74.1678 204.912 74.2795 204.902Z" fill="#263238"/>
<path d="M59.9838 212.643C58.5276 213.2 57.0426 213.678 55.5352 214.076C54.0512 214.551 52.5425 214.945 51.0158 215.256C52.4724 214.7 53.9573 214.222 55.4644 213.823C56.9474 213.344 58.4563 212.95 59.9838 212.643Z" fill="#263238"/>
<path d="M59.8009 222.461C59.729 222.002 59.6974 221.538 59.7065 221.074C59.7065 220.219 59.7065 219.033 59.7065 217.723C59.7065 216.413 59.8186 215.233 59.8894 214.378C59.9022 213.913 59.9595 213.451 60.0605 212.997C60.1001 213.46 60.1001 213.926 60.0605 214.389C60.0605 215.328 59.9956 216.466 59.9602 217.729C59.9248 218.991 59.8953 220.136 59.8717 221.074C59.8952 221.538 59.8715 222.002 59.8009 222.461Z" fill="#263238"/>
<path d="M68.2143 218.171C68.1435 218.171 67.9193 215.77 67.7128 212.796C67.5063 209.822 67.4001 207.409 67.4709 207.403C67.5417 207.397 67.7659 209.805 67.9665 212.778C68.1671 215.752 68.2851 218.171 68.2143 218.171Z" fill="#263238"/>
<path d="M57.73 207.168C58.2038 207.112 58.6816 207.098 59.1578 207.127C60.0369 207.127 61.2523 207.156 62.5916 207.203C63.9309 207.25 65.1463 207.304 66.0254 207.351C66.5027 207.354 66.9787 207.401 67.4473 207.492C66.9735 207.548 66.4957 207.562 66.0195 207.534C65.1404 207.534 63.925 207.498 62.5857 207.457C61.2464 207.416 60.031 207.357 59.1519 207.304C58.6747 207.304 58.1986 207.258 57.73 207.168Z" fill="#263238"/>
<path d="M77.9375 236.461C77.9097 236.37 77.8977 236.274 77.9021 236.178C77.9021 235.966 77.8903 235.694 77.8667 235.364C77.8667 234.65 77.8254 233.624 77.8667 232.349C77.908 231.075 77.9788 229.564 78.1263 227.889C78.2738 226.213 78.5334 224.378 78.8756 222.467C79.2178 220.555 79.6544 218.75 80.0851 217.121C80.5158 215.493 80.9878 214.047 81.4126 212.844C81.8374 211.64 82.2091 210.678 82.4864 210.024C82.6221 209.717 82.7283 209.463 82.8109 209.268C82.8464 209.178 82.8899 209.091 82.9407 209.009C82.9251 209.104 82.8973 209.198 82.8581 209.286C82.7873 209.487 82.6929 209.74 82.5808 210.059C82.3271 210.72 81.9908 211.693 81.5837 212.903C81.1766 214.112 80.7459 215.558 80.3152 217.18C79.8845 218.803 79.4774 220.602 79.1352 222.49C78.793 224.378 78.5452 226.225 78.3682 227.895C78.1912 229.564 78.0968 231.069 78.0496 232.337C78.0024 233.606 77.9847 234.632 77.9847 235.34C77.9847 235.677 77.9847 235.93 77.9847 236.161C77.9779 236.262 77.9621 236.363 77.9375 236.461Z" fill="#263238"/>
<path d="M79.0585 222.537C78.8085 222.877 78.5238 223.189 78.2089 223.469C77.6602 224.018 76.8755 224.756 75.9846 225.534C75.0937 226.313 74.2618 226.998 73.6246 227.47C73.3083 227.747 72.962 227.989 72.5921 228.189C72.8707 227.875 73.1789 227.589 73.5125 227.334L75.8017 225.346L78.0673 223.34C78.3706 223.04 78.7026 222.771 79.0585 222.537Z" fill="#263238"/>
<path d="M85.7904 227.959C85.4517 227.571 85.1495 227.152 84.8877 226.708L82.7814 223.64L80.6397 220.607C80.3187 220.202 80.0306 219.772 79.7783 219.321C80.147 219.684 80.4826 220.079 80.7813 220.501C81.3713 221.251 82.1619 222.307 82.9938 223.504C83.8257 224.702 84.5396 225.805 85.0352 226.62C85.3267 227.042 85.5795 227.491 85.7904 227.959Z" fill="#263238"/>
<path d="M82.2622 210.908C82.2976 210.967 80.0615 212.472 77.2649 214.271C74.4683 216.071 72.1732 217.475 72.1378 217.416C72.1024 217.357 74.3326 215.852 77.1292 214.053C79.9258 212.253 82.2209 210.849 82.2622 210.908Z" fill="#263238"/>
<path d="M88.5693 217.711C87.3819 216.736 86.2512 215.694 85.1827 214.59C84.0578 213.544 82.9884 212.439 81.979 211.28C83.1655 212.258 84.2961 213.302 85.3656 214.407C86.4913 215.451 87.5607 216.554 88.5693 217.711Z" fill="#263238"/>
<path d="M90.18 217.575L92.1034 217.415C93.4657 217.307 94.7882 216.905 95.9797 216.235C96.5619 215.895 97.1649 215.592 97.7851 215.327C100.145 214.377 102.806 214.548 105.361 214.418C109.544 214.207 113.643 213.16 117.414 211.338C117.634 211.237 117.818 211.07 117.939 210.861C118.335 210.141 117.603 209.504 116.972 209.091C113.739 207.096 110.446 205.079 106.777 204.087C103.107 203.096 98.9474 203.267 95.8145 205.421C92.1447 207.952 90.8054 213.144 90.18 217.557" fill="#455A64"/>
<path d="M117.951 210.619C117.839 210.577 117.73 210.526 117.627 210.465L116.718 209.987C115.928 209.574 114.789 208.961 113.355 208.276C111.685 207.452 109.943 206.781 108.151 206.27C105.957 205.635 103.659 205.445 101.39 205.71C99.1246 205.964 96.9852 206.884 95.2422 208.353C93.8789 209.618 92.7887 211.148 92.0385 212.849C91.3659 214.283 90.9529 215.51 90.6461 216.348L90.3039 217.315C90.2706 217.429 90.2272 217.54 90.1741 217.646C90.1875 217.527 90.2152 217.41 90.2567 217.298C90.3334 217.05 90.4337 216.708 90.5517 216.312C90.9252 215.108 91.3685 213.926 91.8792 212.772C92.6158 211.034 93.7069 209.469 95.0829 208.176C96.8674 206.663 99.0643 205.72 101.39 205.468C103.686 205.203 106.012 205.403 108.228 206.058C110.028 206.588 111.776 207.282 113.45 208.129C114.877 208.843 116.004 209.48 116.777 209.899L117.662 210.418C117.765 210.475 117.862 210.543 117.951 210.619Z" fill="#263238"/>
<path d="M113.343 213.097C113.302 213.156 110.795 211.528 107.732 209.468C104.67 207.409 102.228 205.687 102.269 205.628C102.31 205.569 104.818 207.197 107.88 209.256C110.942 211.315 113.379 213.038 113.343 213.097Z" fill="#263238"/>
<path d="M110.665 205.498C110.074 205.696 109.458 205.808 108.836 205.828C108.216 205.913 107.588 205.904 106.971 205.799C107.58 205.692 108.195 205.631 108.812 205.616C109.426 205.53 110.045 205.491 110.665 205.498Z" fill="#263238"/>
<path d="M99.6731 204.064C99.4674 204.534 99.1886 204.968 98.8471 205.351C98.5597 205.792 98.21 206.19 97.8087 206.531C98.0105 206.06 98.2875 205.626 98.6288 205.244C98.9192 204.804 99.2708 204.406 99.6731 204.064Z" fill="#263238"/>
<path d="M101.921 214.561C101.495 214.387 101.09 214.167 100.712 213.906C99.9917 213.469 99.0064 212.82 97.9621 212.065C96.9178 211.31 95.9915 210.584 95.3248 210.059C94.9513 209.793 94.6036 209.493 94.2864 209.162C94.6927 209.375 95.0779 209.626 95.4369 209.911L98.1096 211.858C99.1539 212.614 100.116 213.28 100.812 213.758C101.203 213.995 101.574 214.263 101.921 214.561Z" fill="#263238"/>
<path d="M92.9825 225.735C91.1476 225.251 88.9646 227.027 88.587 228.886C88.2094 230.744 88.9056 232.638 89.7198 234.349C91.4654 238.18 94.0553 241.567 97.2954 244.255C100.562 246.942 104.642 248.446 108.871 248.521C108.098 244.922 109.078 241.17 108.647 237.518C108.267 234.299 106.805 231.304 104.502 229.024C102.199 226.743 99.1903 225.311 95.9679 224.962C94.7879 224.838 93.4486 224.656 92.9825 225.735Z" fill="#455A64"/>
<path d="M108.871 248.521C108.78 248.49 108.693 248.448 108.612 248.397C108.37 248.265 108.141 248.111 107.927 247.937C107.157 247.27 106.539 246.445 106.116 245.518C105.827 244.928 105.526 244.338 105.184 243.654C104.841 242.969 104.541 242.244 104.198 241.477C103.84 240.678 103.434 239.902 102.983 239.152C102.488 238.355 101.931 237.598 101.319 236.886C100.068 235.411 98.7232 234.137 97.555 232.922C96.4978 231.861 95.5381 230.708 94.6876 229.476C94.1129 228.643 93.6414 227.744 93.2834 226.797C93.1877 226.54 93.105 226.278 93.0356 226.013C93.0024 225.924 92.9845 225.83 92.9825 225.735C92.9825 225.735 93.1064 226.107 93.3719 226.762C93.7639 227.683 94.2545 228.56 94.8351 229.376C95.703 230.581 96.6701 231.712 97.7261 232.756C98.9061 233.936 100.245 235.234 101.514 236.721C102.135 237.444 102.699 238.213 103.201 239.022C103.652 239.784 104.056 240.572 104.411 241.382L105.372 243.565C105.679 244.244 105.998 244.869 106.281 245.435C106.678 246.353 107.26 247.179 107.992 247.86C108.523 248.321 108.889 248.492 108.871 248.521Z" fill="#263238"/>
<path d="M99.4017 245.53C99.4131 245.114 99.4704 244.7 99.5728 244.297C99.7144 243.541 99.9504 242.527 100.269 241.382C100.588 240.237 100.924 239.246 101.195 238.532C101.319 238.135 101.487 237.753 101.697 237.394C101.622 237.796 101.512 238.191 101.366 238.574C101.142 239.305 100.829 240.314 100.511 241.441C100.192 242.568 99.9209 243.583 99.7498 244.326C99.6729 244.738 99.5563 245.141 99.4017 245.53Z" fill="#263238"/>
<path d="M108.523 236.703C108.086 236.644 107.656 236.545 107.237 236.408C106.446 236.201 105.355 235.918 104.145 235.647C102.936 235.375 101.827 235.163 101.024 235.01C100.586 234.951 100.154 234.856 99.7321 234.726C100.175 234.713 100.618 234.749 101.054 234.833C101.868 234.939 102.983 235.122 104.198 235.423C105.414 235.723 106.505 236.013 107.284 236.26C107.712 236.364 108.127 236.512 108.523 236.703Z" fill="#263238"/>
<path d="M92.6108 239.269C92.6279 238.788 92.6932 238.31 92.8055 237.842C92.9648 236.968 93.2244 235.765 93.5666 234.455C93.9088 233.145 94.2746 231.965 94.5578 231.127C94.6928 230.664 94.8686 230.214 95.0829 229.782C95.0073 230.257 94.8908 230.725 94.7348 231.181C94.487 232.03 94.1448 233.21 93.8144 234.52C93.484 235.83 93.189 237.016 92.9825 237.883C92.8951 238.354 92.7709 238.818 92.6108 239.269Z" fill="#263238"/>
<path d="M104.34 229.015C104.34 229.086 102.051 228.897 99.2365 228.602C96.4222 228.307 94.1507 228.012 94.1566 227.936C95.8656 227.986 97.571 228.124 99.266 228.349C100.968 228.484 102.661 228.706 104.34 229.015Z" fill="#263238"/>
<path d="M102.647 256.733C102.647 256.804 94.6168 256.863 84.7048 256.863C74.7928 256.863 66.757 256.804 66.757 256.733C66.757 256.662 74.7928 256.609 84.7048 256.609C94.6168 256.609 102.647 256.662 102.647 256.733Z" fill="#455A64"/>
<path d="M97.0594 267.07C97.0594 267.141 91.6432 267.194 84.9703 267.194C78.2974 267.194 72.8753 267.141 72.8753 267.07C72.8753 266.999 78.2915 266.94 84.9703 266.94C91.6491 266.94 97.0594 267.005 97.0594 267.07Z" fill="#455A64"/>
<path d="M96.847 268.552C96.847 268.622 91.537 268.681 84.9703 268.681C78.4036 268.681 73.0877 268.622 73.0877 268.552C73.0877 268.481 78.3977 268.428 84.9703 268.428C91.5429 268.428 96.847 268.481 96.847 268.552Z" fill="#455A64"/>
<path d="M97.26 265.855C97.26 265.926 91.6609 265.985 84.752 265.985C77.8431 265.985 72.244 265.926 72.244 265.855C72.244 265.785 77.8431 265.731 84.752 265.731C91.6609 265.731 97.26 265.785 97.26 265.855Z" fill="#455A64"/>
<path d="M187.135 63.45L191.589 55.603C188.836 51.1335 187.855 45.7958 188.837 40.6393C189.82 35.4827 192.696 30.8802 196.9 27.7363C201.103 24.5924 206.331 23.1345 211.555 23.6492C216.779 24.1639 221.622 26.614 225.131 30.5179C228.64 34.4217 230.563 39.497 230.52 44.7462C230.477 49.9954 228.473 55.0388 224.901 58.8852C221.328 62.7315 216.447 65.1027 211.215 65.5325C205.983 65.9623 200.78 64.4198 196.628 61.208L187.135 63.45Z" fill="white"/>
<path d="M187.135 63.4502L196.616 61.161L196.581 61.2672C196.574 61.2607 196.569 61.2528 196.565 61.2442C196.562 61.2356 196.56 61.2264 196.56 61.2171C196.56 61.2078 196.562 61.1985 196.565 61.1899C196.569 61.1813 196.574 61.1735 196.581 61.1669C196.593 61.1583 196.607 61.1536 196.622 61.1536C196.637 61.1536 196.651 61.1583 196.663 61.1669C197.993 62.186 199.436 63.0473 200.964 63.7334C202.787 64.5335 204.714 65.0737 206.687 65.3382C207.778 65.4852 208.88 65.5366 209.979 65.4916C210.569 65.4562 211.124 65.4444 211.702 65.3913L213.472 65.1199C218.705 64.0855 223.346 61.0958 226.452 56.7596C228.177 54.3651 229.37 51.6292 229.951 48.7356C230.547 45.6806 230.46 42.5316 229.697 39.5139C228.915 36.3575 227.392 33.4329 225.255 30.9825L224.405 30.0503C224.128 29.7376 223.815 29.4603 223.491 29.1948C223.193 28.9043 222.88 28.6306 222.552 28.3747L221.561 27.6313C221.227 27.3753 220.874 27.1445 220.505 26.941L219.455 26.3038L218.352 25.761C217.992 25.5741 217.622 25.4086 217.242 25.2654C214.289 24.0985 211.112 23.6085 207.944 23.8317C204.946 24.0328 202.029 24.893 199.401 26.351C194.677 28.9754 191.138 33.3102 189.512 38.4637C188.863 40.6598 188.551 42.9414 188.586 45.231C188.688 48.8864 189.748 52.4508 191.66 55.5678C191.666 55.5788 191.669 55.5909 191.669 55.6032C191.669 55.6156 191.666 55.6277 191.66 55.6386C188.787 60.6182 187.383 63.0431 187.147 63.4502L191.542 55.5678V55.6386C189.594 52.5077 188.509 48.9169 188.397 45.231C188.348 42.9171 188.653 40.6092 189.3 38.387C190.927 33.1691 194.497 28.7757 199.271 26.115C201.932 24.6386 204.885 23.7663 207.92 23.5603C211.136 23.3218 214.364 23.8161 217.36 25.0058C217.747 25.1474 218.123 25.3149 218.487 25.5073L219.602 26.0501L220.67 26.6932C221.031 26.9034 221.38 27.1338 221.715 27.3835L222.706 28.121C223.036 28.3823 223.353 28.6599 223.656 28.9529C223.963 29.242 224.299 29.5075 224.582 29.8202L225.438 30.7701C227.605 33.2492 229.149 36.2108 229.939 39.4077C230.715 42.4719 230.799 45.6702 230.187 48.771C229.598 51.6983 228.391 54.4661 226.647 56.8894C223.492 61.2696 218.788 64.2842 213.49 65.3205L211.72 65.586C211.13 65.6332 210.54 65.6509 209.979 65.6804C208.868 65.7245 207.754 65.6692 206.652 65.5152C204.664 65.2413 202.726 64.6871 200.893 63.8691C199.358 63.1697 197.909 62.2946 196.575 61.2613L196.669 61.1669C196.676 61.1735 196.681 61.1813 196.685 61.1899C196.688 61.1985 196.69 61.2078 196.69 61.2171C196.69 61.2264 196.688 61.2356 196.685 61.2442C196.681 61.2528 196.676 61.2607 196.669 61.2672L187.135 63.4502Z" fill="#263238"/>
<path d="M205.879 42.051H207.248L210.233 37.921V35.1657C210.233 35.1657 212.345 35.03 212.098 38.6054C211.85 42.1808 212.098 41.2663 212.098 41.2663C212.098 41.2663 216.582 41.2663 216.953 41.6734C217.225 41.9566 217.349 46.3934 217.396 48.8301C217.425 49.4133 217.259 49.9896 216.923 50.4674C216.587 50.9452 216.102 51.2972 215.543 51.4674C215.385 51.5093 215.223 51.5311 215.059 51.5323C213.938 51.5323 208.221 50.6237 208.221 50.6237H205.861L205.879 42.051Z" fill="#6C5CE7"/>
<path d="M201.967 41.3018L202.811 50.6474H205.147V41.4906L201.967 41.3018Z" fill="#6C5CE7"/>
<path d="M136.725 61.373C133.435 63.4708 129.605 64.5636 125.704 64.5177C124.47 64.442 123.234 64.4283 121.999 64.4764C120.755 64.5277 119.564 64.9905 118.612 65.7921C118.144 66.2006 117.811 66.7407 117.655 67.3417C117.499 67.9428 117.529 68.5768 117.739 69.161C118.435 70.754 120.689 71.3853 121.031 73.0904C121.279 74.3176 120.364 75.4859 119.332 76.1998C118.299 76.9137 117.096 77.3797 116.228 78.2883C115.705 78.8322 115.335 79.5053 115.157 80.2388C114.979 80.9723 114.998 81.7399 115.214 82.4634C115.429 83.1869 115.832 83.8403 116.383 84.3569C116.933 84.8734 117.611 85.2347 118.347 85.4037C119.226 85.6102 120.305 85.6161 120.783 86.3831C121.037 86.9657 121.083 87.6176 120.913 88.2299C120.681 89.5448 120.856 90.8992 121.415 92.1121C121.702 92.7126 122.15 93.2218 122.71 93.5832C123.269 93.9446 123.917 94.144 124.583 94.1593C125.102 94.1593 125.609 93.9823 126.129 93.9941C126.388 93.9782 126.645 94.0413 126.868 94.1751C127.09 94.3089 127.266 94.5071 127.374 94.7434C127.428 95.0971 127.412 95.4581 127.326 95.8055C127.138 97.5459 128.872 98.9089 130.554 99.4045C133.911 100.407 137.634 99.4398 140.489 97.3749C143.345 95.3099 145.298 92.2536 146.625 89.0086C147.953 85.7636 148.667 82.318 149.375 78.8842" fill="#263238"/>
<path d="M174.225 148.156C173.849 147.226 173.285 146.384 172.568 145.683C168.125 140.963 161.393 138.692 154.921 139.064C148.448 139.435 142.247 142.25 137.221 146.327C134.536 148.504 130.914 152.699 129.97 156.026C133.911 156.976 139.799 155.654 143.54 154.032C147.28 152.409 150.938 150.451 154.968 150.038C159.641 149.56 164.231 151.218 168.833 152.156C169.753 152.38 170.703 152.456 171.647 152.38C172.119 152.338 172.576 152.196 172.989 151.964C173.402 151.732 173.761 151.416 174.043 151.035C174.29 150.6 174.435 150.115 174.467 149.616C174.499 149.117 174.416 148.618 174.225 148.156Z" fill="#6C5CE7"/>
<g opacity="0.3">
<path d="M174.225 148.156C173.849 147.226 173.285 146.384 172.568 145.683C168.125 140.963 161.393 138.692 154.921 139.064C148.448 139.435 142.247 142.25 137.221 146.327C134.536 148.504 130.914 152.699 129.97 156.026C133.911 156.976 139.799 155.654 143.54 154.032C147.28 152.409 150.938 150.451 154.968 150.038C159.641 149.56 164.231 151.218 168.833 152.156C169.753 152.38 170.703 152.456 171.647 152.38C172.119 152.338 172.576 152.196 172.989 151.964C173.402 151.732 173.761 151.416 174.043 151.035C174.29 150.6 174.435 150.115 174.467 149.616C174.499 149.117 174.416 148.618 174.225 148.156Z" fill="black"/>
</g>
<path d="M171.01 204.442L182.261 197.155C182.261 197.155 193.471 206.141 195.66 204.996L182.303 182.7L164.302 193.32L171.01 204.442Z" fill="#6C5CE7"/>
<path d="M177.158 190.831C177.093 190.576 177.125 190.308 177.247 190.076C177.369 189.844 177.573 189.665 177.819 189.574C178.071 189.501 178.341 189.527 178.574 189.648C178.807 189.769 178.984 189.975 179.069 190.223C179.135 190.492 179.1 190.775 178.969 191.019C178.838 191.263 178.622 191.45 178.361 191.544C178.091 191.594 177.813 191.536 177.584 191.385C177.355 191.233 177.194 190.998 177.134 190.73" fill="#E0E0E0"/>
<g opacity="0.6">
<path d="M182.303 182.7L180.533 183.845L194.02 204.79C194.02 204.79 195.047 205.527 195.678 204.996L182.303 182.7Z" fill="white"/>
</g>
<path d="M182.356 197.58C182.462 197.515 182.185 196.937 182.214 196.193C182.244 195.45 182.533 194.89 182.432 194.813C182.332 194.736 181.795 195.279 181.777 196.182C181.76 197.084 182.273 197.668 182.356 197.58Z" fill="#263238"/>
<path d="M184.728 199.345C184.846 199.309 184.728 198.755 184.987 198.076C185.247 197.398 185.654 197.032 185.577 196.926C185.5 196.82 184.851 197.121 184.568 197.929C184.285 198.737 184.621 199.404 184.728 199.345Z" fill="#263238"/>
<path d="M188.327 198.996C188.285 198.884 187.654 199.061 187.223 199.698C186.793 200.336 186.863 200.985 186.981 200.979C187.099 200.973 187.229 200.465 187.571 199.946C187.914 199.427 188.38 199.114 188.327 198.996Z" fill="#263238"/>
<path d="M179.606 198.961C179.683 198.855 179.229 198.442 178.904 197.781C178.58 197.12 178.485 196.542 178.356 196.542C178.226 196.542 178.12 197.232 178.515 197.987C178.91 198.743 179.553 199.067 179.606 198.961Z" fill="#263238"/>
<path opacity="0.3" d="M172.786 188.3L177.901 199.97L176.184 201.185L170.284 189.804L172.786 188.3Z" fill="black"/>
<path d="M166.083 142.51C165.623 142.51 150.49 142.174 142.318 147.572L135.828 151.218L135.999 157.767C135.999 157.767 134.613 160.08 134.92 161.467C135.226 162.853 134.878 168.712 134.878 168.712C134.878 168.712 132.453 168.865 132.147 173.031C132.147 173.031 128.784 174.417 127.309 176.883C125.834 179.35 110.718 207.097 109.797 211.569C108.877 216.042 108.252 223.9 111.644 226.52C115.037 229.14 122.63 228.213 122.63 228.213C122.63 228.213 123.71 231.452 130.341 231.606C136.973 231.759 147.139 224.054 147.139 224.054L177.665 203.245L170.42 187.781L159.759 194.3L171.163 181.043C171.163 181.043 176.408 172.104 174.863 162.7C173.724 155.72 166.083 142.51 166.083 142.51Z" fill="#263238"/>
<path d="M168.697 147.3H168.337H167.311C166.414 147.3 165.128 147.3 163.535 147.3C161.942 147.3 160.042 147.377 157.953 147.601C155.686 147.818 153.45 148.285 151.286 148.994C146.678 150.551 142.973 153.023 140.336 154.787L137.232 156.935L136.389 157.525C136.295 157.6 136.192 157.661 136.082 157.708C136.082 157.708 136.165 157.619 136.347 157.472L137.162 156.846C137.876 156.304 138.932 155.531 140.212 154.61C142.826 152.799 146.531 150.28 151.186 148.71C153.372 147.994 155.632 147.528 157.924 147.324C159.789 147.151 161.662 147.074 163.535 147.094C165.128 147.094 166.42 147.153 167.311 147.2L168.337 147.259C168.459 147.257 168.58 147.27 168.697 147.3Z" fill="#455A64"/>
<path d="M137.551 152.115C137.31 152.358 137.144 152.665 137.073 153C137.043 153.172 137.056 153.349 137.112 153.515C137.168 153.681 137.264 153.831 137.392 153.95C137.548 154.093 137.74 154.192 137.948 154.236C138.155 154.279 138.371 154.266 138.572 154.198C138.764 154.109 138.93 153.97 139.05 153.796C139.17 153.622 139.242 153.418 139.256 153.206C139.268 153.031 139.236 152.856 139.163 152.696C139.089 152.536 138.978 152.398 138.837 152.292C138.555 152.095 138.22 151.988 137.876 151.985C137.876 151.985 137.964 151.908 138.165 151.897C138.448 151.88 138.728 151.959 138.961 152.121C139.147 152.236 139.299 152.398 139.403 152.591C139.506 152.783 139.557 153 139.551 153.218C139.556 153.494 139.477 153.765 139.324 153.994C139.171 154.224 138.952 154.402 138.696 154.504C138.439 154.605 138.158 154.627 137.889 154.565C137.62 154.503 137.377 154.36 137.191 154.156C137.04 154.004 136.929 153.816 136.869 153.61C136.809 153.404 136.803 153.186 136.849 152.976C136.911 152.699 137.06 152.449 137.274 152.262C137.439 152.121 137.545 152.097 137.551 152.115Z" fill="#455A64"/>
<path d="M142.985 152.911C142.955 152.941 142.743 152.782 142.442 152.475C142.003 152.092 141.696 151.58 141.563 151.013C141.431 150.445 141.481 149.85 141.705 149.312C141.84 148.899 141.964 148.663 142 148.675C142.035 148.687 142 148.953 141.917 149.366C141.793 149.882 141.775 150.418 141.864 150.941C142.017 151.45 142.27 151.923 142.607 152.333C142.855 152.67 143.014 152.882 142.985 152.911Z" fill="#455A64"/>
<path d="M144.265 152.127C144.265 152.156 144.029 152.026 143.752 151.737C143.396 151.346 143.132 150.881 142.979 150.374C142.742 149.672 142.732 148.912 142.95 148.203C143.056 148.203 142.95 149.183 143.274 150.286C143.529 150.937 143.862 151.555 144.265 152.127Z" fill="#455A64"/>
<path d="M160.602 147.3C160.555 147.3 160.537 147.023 160.496 146.586C160.451 146.031 160.326 145.484 160.124 144.964C159.903 144.454 159.592 143.988 159.204 143.589C158.909 143.271 158.72 143.07 158.75 143.035C158.779 142.999 159.015 143.141 159.34 143.43C159.797 143.813 160.156 144.298 160.39 144.846C160.609 145.397 160.714 145.987 160.697 146.581C160.723 146.825 160.69 147.071 160.602 147.3Z" fill="#455A64"/>
<path d="M162.585 147.3C162.538 147.3 162.532 147.023 162.538 146.592C162.571 146.046 162.526 145.497 162.402 144.964C162.204 144.452 161.947 143.964 161.635 143.512C161.405 143.147 161.281 142.922 161.316 142.881C161.352 142.84 161.54 143.052 161.812 143.388C162.191 143.829 162.491 144.332 162.697 144.875C162.839 145.443 162.857 146.035 162.75 146.61C162.691 147.011 162.626 147.3 162.585 147.3Z" fill="#455A64"/>
<path d="M136.489 214.312C136.552 214.071 136.645 213.839 136.766 213.622C136.973 213.179 137.291 212.536 137.71 211.716C138.548 210.07 139.781 207.704 141.327 204.79C144.419 198.96 148.737 190.931 153.546 182.086L157.086 175.626C158.162 173.626 158.996 171.504 159.57 169.307C160.545 165.572 160.745 161.677 160.16 157.861C159.774 155.29 159.041 152.784 157.983 150.409C157.611 149.566 157.287 148.928 157.062 148.498L156.803 148.008C156.772 147.953 156.747 147.896 156.726 147.837C156.767 147.886 156.802 147.94 156.832 147.996L157.115 148.468C157.357 148.887 157.705 149.518 158.095 150.356C160.851 156.307 161.454 163.031 159.8 169.378C159.227 171.602 158.389 173.749 157.304 175.773C156.171 177.856 154.997 180.016 153.8 182.228L141.51 204.89L137.805 211.769L136.808 213.646L136.56 214.141C136.541 214.2 136.518 214.257 136.489 214.312Z" fill="#455A64"/>
<path d="M170.538 194.347C170.434 194.434 170.324 194.513 170.208 194.583L169.228 195.173L165.611 197.45C162.561 199.338 158.36 201.964 153.764 204.937C149.168 207.911 145.05 210.642 142.1 212.637L138.56 214.997L137.586 215.622C137.477 215.701 137.36 215.77 137.238 215.829C137.333 215.732 137.438 215.647 137.551 215.575L138.489 214.896L141.97 212.46C144.92 210.424 149.05 207.639 153.623 204.66C158.195 201.68 162.443 199.084 165.523 197.249C167.063 196.329 168.32 195.597 169.187 195.102L170.196 194.512C170.305 194.447 170.42 194.392 170.538 194.347Z" fill="#455A64"/>
<path d="M175.311 204.825C175.197 204.639 175.102 204.441 175.028 204.235L174.29 202.56C173.653 201.15 172.745 199.215 171.724 197.085C170.703 194.955 169.818 193.084 169.122 191.621L168.349 189.957C168.243 189.759 168.16 189.549 168.101 189.332C168.245 189.512 168.364 189.711 168.455 189.922C168.668 190.306 168.963 190.854 169.317 191.545C170.025 192.919 170.986 194.837 172.001 196.973C173.016 199.108 173.901 201.055 174.491 202.495C174.786 203.209 175.004 203.799 175.14 204.212C175.218 204.41 175.276 204.616 175.311 204.825Z" fill="#455A64"/>
<path d="M136.489 214.313C136.436 214.248 141.652 209.634 148.147 204.006C154.643 198.377 159.947 193.869 160.006 193.934C160.065 193.999 154.844 198.631 148.348 204.236C141.852 209.841 136.548 214.378 136.489 214.313Z" fill="#455A64"/>
<path d="M130.023 225.127C130.499 224.717 130.922 224.247 131.279 223.729C131.911 222.75 132.684 221.31 133.557 219.747C134.43 218.183 135.167 216.726 135.71 215.681C135.974 215.102 136.282 214.544 136.631 214.012C136.442 214.622 136.199 215.215 135.905 215.782C135.409 216.856 134.69 218.319 133.828 219.912C132.967 221.505 132.153 222.897 131.468 223.871C131.194 224.257 130.864 224.601 130.489 224.891C130.351 225 130.192 225.08 130.023 225.127Z" fill="#455A64"/>
<path d="M135.551 226.797C135.504 226.797 135.84 226.13 136.212 225.027C136.676 223.579 136.996 222.089 137.168 220.578C137.378 219.075 137.378 217.55 137.168 216.047C137.098 215.598 136.965 215.161 136.772 214.749C136.672 214.614 136.585 214.47 136.513 214.318C136.513 214.318 136.666 214.419 136.873 214.69C137.118 215.095 137.29 215.541 137.38 216.006C137.665 217.526 137.705 219.081 137.498 220.614C137.328 222.148 136.971 223.656 136.436 225.104C136.271 225.54 136.074 225.964 135.846 226.372C135.669 226.655 135.569 226.809 135.551 226.797Z" fill="#455A64"/>
<path d="M129.161 217.835C129.539 217.663 129.935 217.537 130.341 217.457C131.272 217.205 132.181 216.882 133.061 216.49C135.108 215.534 136.448 214.218 136.519 214.312C136.262 214.638 135.955 214.921 135.61 215.15C134.863 215.792 134.031 216.328 133.138 216.743C132.242 217.147 131.304 217.45 130.341 217.646C129.958 217.762 129.561 217.826 129.161 217.835Z" fill="#455A64"/>
<path d="M136.967 174.965C136.945 175.01 136.917 175.051 136.884 175.089L136.625 175.437C136.395 175.744 136.064 176.198 135.669 176.8C134.557 178.515 133.621 180.338 132.872 182.24C131.789 185.07 130.889 187.967 130.176 190.913C129.297 194.223 128.406 197.91 126.925 201.592C125.444 205.273 123.521 208.542 122.305 211.74C121.163 214.544 120.541 217.533 120.471 220.56C120.47 221.718 120.601 222.872 120.86 224C121.068 224.851 121.35 225.682 121.704 226.484C121.929 226.992 122.183 227.486 122.465 227.965C122.547 228.118 122.618 228.242 122.677 228.342C122.703 228.386 122.725 228.431 122.742 228.478C122.706 228.443 122.674 228.403 122.648 228.36L122.412 228C122.108 227.53 121.834 227.042 121.592 226.537C121.216 225.735 120.916 224.899 120.695 224.041C120.415 222.9 120.266 221.73 120.252 220.554C120.283 217.497 120.884 214.472 122.022 211.634C123.232 208.406 125.102 205.108 126.618 201.468C128.135 197.828 128.978 194.14 129.875 190.848C130.606 187.895 131.533 184.994 132.648 182.163C133.417 180.257 134.388 178.439 135.545 176.741C135.958 176.151 136.306 175.697 136.554 175.408L136.837 175.077C136.926 175.03 136.961 174.959 136.967 174.965Z" fill="#455A64"/>
<path d="M137.97 156.345C137.884 156.592 137.782 156.832 137.663 157.065C137.381 157.714 137.183 158.396 137.073 159.095C136.941 160.132 136.977 161.184 137.179 162.21C137.362 163.39 137.852 164.57 138.182 165.95C138.349 166.617 138.407 167.306 138.353 167.992C138.303 168.622 138.202 169.247 138.053 169.862C137.803 170.895 137.498 171.913 137.138 172.912C136.837 173.768 136.548 174.446 136.383 174.918C136.301 175.168 136.193 175.407 136.058 175.632C136.106 175.375 136.177 175.122 136.271 174.877C136.448 174.34 136.666 173.656 136.932 172.842C137.197 172.027 137.522 170.959 137.775 169.797C138.113 168.565 138.15 167.27 137.881 166.021C137.563 164.705 137.067 163.461 136.902 162.257C136.705 161.201 136.689 160.12 136.855 159.059C136.981 158.348 137.214 157.66 137.545 157.018C137.63 156.843 137.727 156.673 137.834 156.51C137.905 156.398 137.97 156.339 137.97 156.345Z" fill="#455A64"/>
<path d="M138.678 174.098C139.334 173.366 139.839 172.512 140.165 171.585C140.493 170.576 140.648 169.519 140.625 168.458C140.579 167.152 140.417 165.853 140.141 164.576C139.855 163.288 139.636 161.986 139.486 160.676C139.392 159.595 139.414 158.507 139.551 157.431C139.636 156.704 139.81 155.991 140.07 155.307C140.14 155.122 140.223 154.943 140.318 154.77C140.389 154.652 140.424 154.593 140.436 154.593C140.448 154.593 140.336 154.864 140.182 155.348C139.97 156.036 139.83 156.744 139.764 157.46C139.663 158.52 139.663 159.587 139.764 160.646C139.876 161.826 140.171 163.142 140.436 164.517C140.717 165.812 140.873 167.132 140.902 168.458C140.914 169.548 140.73 170.631 140.359 171.656C140.112 172.35 139.74 172.994 139.262 173.555C139.13 173.704 138.988 173.844 138.837 173.974C138.743 174.063 138.684 174.104 138.678 174.098Z" fill="#455A64"/>
<path d="M153.64 169.45C153.407 169.516 153.168 169.559 152.926 169.579C152.466 169.638 151.8 169.745 150.985 169.886C148.858 170.255 146.763 170.792 144.72 171.491C142.679 172.199 140.696 173.065 138.79 174.081C138.058 174.476 137.474 174.801 137.073 175.037C136.873 175.174 136.657 175.287 136.43 175.373C136.61 175.206 136.808 175.06 137.02 174.937C137.404 174.671 137.976 174.311 138.696 173.892C142.478 171.725 146.636 170.291 150.95 169.668C151.776 169.556 152.449 169.485 152.915 169.461C153.155 169.428 153.399 169.424 153.64 169.45Z" fill="#455A64"/>
<path d="M154.602 163.012C154.602 163.071 153.729 163.06 152.354 163.272C151.555 163.399 150.766 163.585 149.994 163.827C148.089 164.425 146.306 165.36 144.731 166.588C144.088 167.09 143.483 167.638 142.92 168.228C141.964 169.237 141.48 169.963 141.433 169.927C141.51 169.736 141.613 169.558 141.74 169.396C142.047 168.932 142.388 168.493 142.761 168.08C143.301 167.459 143.893 166.885 144.531 166.364C145.326 165.735 146.175 165.178 147.068 164.7C147.973 164.236 148.916 163.853 149.888 163.555C150.681 163.321 151.492 163.155 152.313 163.06C152.866 162.986 153.424 162.954 153.983 162.965C154.19 162.957 154.398 162.972 154.602 163.012Z" fill="#455A64"/>
<path d="M155.918 176.512C155.708 176.621 155.486 176.706 155.257 176.765C154.82 176.907 154.201 177.119 153.428 177.391C151.431 178.105 149.475 178.93 147.569 179.863C145.67 180.802 143.826 181.85 142.047 183.002C141.362 183.444 140.814 183.81 140.436 184.07C140.254 184.215 140.056 184.339 139.846 184.441C140.006 184.265 140.186 184.109 140.383 183.975C140.737 183.686 141.268 183.291 141.941 182.795C143.694 181.58 145.536 180.497 147.451 179.556C149.358 178.615 151.329 177.812 153.351 177.155C154.13 176.913 154.767 176.73 155.21 176.624C155.44 176.557 155.678 176.519 155.918 176.512Z" fill="#455A64"/>
<path d="M174.55 161.071C174.347 161.029 174.149 160.964 173.96 160.876C173.594 160.735 173.057 160.534 172.361 160.286C170.443 159.658 168.466 159.225 166.461 158.994L166.609 158.858C166.679 161.401 166.662 164.416 166.437 167.632C166.226 170.765 165.81 173.881 165.193 176.96V176.895C165.738 178.68 166.394 180.43 167.157 182.134C167.435 182.724 167.688 183.208 167.859 183.526C167.962 183.68 168.054 183.839 168.137 184.004C168.008 183.869 167.893 183.721 167.794 183.562C167.511 183.123 167.253 182.668 167.022 182.199C166.208 180.508 165.516 178.761 164.951 176.971V176.942V176.907C165.527 173.833 165.921 170.728 166.131 167.608C166.355 164.404 166.384 161.401 166.349 158.864V158.711H166.502C168.515 158.962 170.493 159.432 172.402 160.115C173.093 160.369 173.618 160.599 173.978 160.758C174.177 160.845 174.369 160.95 174.55 161.071Z" fill="#455A64"/>
<path d="M174.998 163.632C174.576 163.553 174.162 163.439 173.759 163.29C173.004 163.065 171.948 162.77 170.774 162.499C168.414 161.944 166.491 161.59 166.502 161.502C166.934 161.485 167.366 161.523 167.789 161.614C168.579 161.726 169.659 161.915 170.845 162.204C173.222 162.735 175.04 163.549 174.998 163.632Z" fill="#455A64"/>
<path d="M172.19 154.552C172.19 154.593 171.47 154.387 170.32 154.115C168.821 153.765 167.299 153.523 165.765 153.39C164.23 153.27 162.689 153.25 161.151 153.331C160.512 153.39 159.87 153.414 159.228 153.401C159.39 153.337 159.561 153.297 159.735 153.283C160.066 153.23 160.543 153.165 161.133 153.112C162.681 152.969 164.239 152.959 165.788 153.083C167.339 153.213 168.874 153.487 170.373 153.903C170.963 154.068 171.405 154.216 171.712 154.339C171.882 154.384 172.043 154.456 172.19 154.552Z" fill="#455A64"/>
<path d="M160.16 157.213C159.907 157.318 159.644 157.399 159.375 157.455C158.868 157.591 158.124 157.756 157.192 157.921C154.768 158.345 152.301 158.468 149.847 158.287C148.425 158.145 147.003 157.992 145.894 157.296C145.371 156.969 144.945 156.509 144.661 155.962C144.425 155.47 144.355 154.916 144.46 154.381C144.58 153.641 144.8 152.92 145.115 152.239C145.214 151.982 145.356 151.742 145.534 151.531C145.534 151.531 145.416 151.797 145.227 152.281C144.961 152.967 144.775 153.682 144.672 154.41C144.597 154.896 144.676 155.393 144.897 155.832C145.176 156.325 145.584 156.733 146.077 157.012C147.109 157.65 148.496 157.803 149.906 157.939C152.339 158.115 154.785 158.022 157.198 157.661C158.124 157.532 158.874 157.396 159.387 157.296C159.642 157.245 159.9 157.217 160.16 157.213Z" fill="#455A64"/>
<path d="M158.655 51.4609C155.835 45.3485 148.855 46.5521 145.516 48.1746C142.16 49.7591 139.524 52.5505 138.135 55.9921C137.156 58.3521 136.365 61.0425 134.395 62.4821C133.489 63.0202 132.553 63.5067 131.592 63.9394C131.099 64.1787 130.666 64.5264 130.325 64.9565C129.985 65.3866 129.747 65.8881 129.627 66.4233C129.332 68.4588 131.397 69.8689 133.097 70.689C132.076 71.3852 131.81 72.9605 132.17 74.229C132.606 75.4412 133.294 76.5472 134.188 77.474C137.198 80.7972 140.641 83.7004 144.425 86.1057C147.646 88.1117 149.735 88.3477 153.192 86.9081C154.596 86.3181 155.906 85.3623 157.405 85.1912C159.145 84.9965 160.809 85.8874 162.532 86.2473C164.254 86.6072 166.426 86.1116 166.986 84.3003C167.125 83.5784 167.204 82.8463 167.222 82.1114C167.311 81.3857 167.671 80.5951 168.325 80.4299C168.856 80.2942 169.387 80.6187 169.907 80.7898C171.152 81.2028 173.028 90.4422 174.22 89.8817C174.22 89.8817 175.954 74.2231 172.615 65.0604C171.547 62.1104 169.269 55.9036 167.452 53.4787C164.951 50.1511 158.956 50.8886 158.655 51.4786" fill="#263238"/>
<path d="M155.08 52.476C150.637 50.9243 144.643 54.3345 143.28 58.8362C141.764 63.8335 140.118 69.999 139.828 73.9284C139.238 81.8285 144.861 84.1708 144.861 84.1708L142.578 96.5195L161.83 90.295L168.55 61.1962L169.175 58.7536L155.08 52.476Z" fill="#FFBE9D"/>
<path d="M143.28 64.9247C143.345 65.0958 144.259 64.848 145.262 65.2433C146.265 65.6386 146.808 66.4233 146.962 66.3525C147.115 66.2817 147.009 66.0575 146.779 65.6976C146.463 65.2244 146.007 64.8614 145.475 64.6592C144.954 64.4475 144.378 64.4103 143.835 64.553C143.439 64.7005 143.28 64.848 143.28 64.9247Z" fill="#263238"/>
<path d="M153.245 67.5504C153.363 67.6861 154.16 67.1787 155.233 67.2554C156.307 67.3321 157.062 67.9221 157.192 67.7982C157.322 67.6743 157.145 67.4973 156.815 67.2082C156.37 66.857 155.828 66.651 155.263 66.6182C154.702 66.5779 154.142 66.7163 153.664 67.0135C153.31 67.2554 153.192 67.4855 153.245 67.5504Z" fill="#263238"/>
<path d="M148.773 71.9695C148.261 71.6648 147.711 71.4269 147.139 71.2615C146.879 71.1671 146.637 71.055 146.637 70.8603C146.678 70.5784 146.806 70.3164 147.003 70.111L148.271 68.2525C150.041 65.6034 151.416 63.3968 151.31 63.326C151.204 63.2552 149.67 65.3438 147.882 67.9929C147.451 68.6537 147.038 69.2732 146.643 69.875C146.395 70.1576 146.257 70.5198 146.254 70.8957C146.271 70.9989 146.312 71.0969 146.372 71.1826C146.432 71.2683 146.511 71.3395 146.602 71.3913C146.743 71.4628 146.891 71.5202 147.044 71.5624C147.601 71.7711 148.182 71.9079 148.773 71.9695Z" fill="#263238"/>
<path d="M144.867 84.1709C148.523 85.0911 152.36 84.9952 155.965 83.8936C155.965 83.8936 152.23 88.649 144.507 86.1002L144.867 84.1709Z" fill="#EB996E"/>
<path d="M148.201 75.4975C148.1 75.3677 148.248 75.6568 148.201 75.4975V75.4975Z" fill="#EB996E"/>
<path d="M151.628 74.9838C151.513 74.7408 151.348 74.5242 151.145 74.3476C150.942 74.1709 150.705 74.038 150.448 73.9572C150.101 73.8327 149.728 73.7982 149.364 73.857C149 73.9158 148.656 74.066 148.366 74.2935C148.247 74.463 148.169 74.6576 148.137 74.8622C148.105 75.0668 148.121 75.2759 148.183 75.4735C148.555 75.9514 148.59 76.3526 149.109 76.6535C149.483 76.7767 149.879 76.8174 150.271 76.7726C150.662 76.7277 151.038 76.5985 151.375 76.3939C151.556 76.2131 151.678 75.9809 151.724 75.7287C151.769 75.4765 151.736 75.2165 151.628 74.9838Z" fill="#EB996E"/>
<path d="M151.699 73.4204C151.528 73.3732 151.257 74.5119 150.094 75.0901C148.932 75.6683 147.734 75.2612 147.693 75.4205C147.693 75.4854 147.911 75.7037 148.425 75.8394C149.089 76.0061 149.791 75.933 150.407 75.6329C151.001 75.3424 151.458 74.8325 151.682 74.211C151.841 73.7449 151.776 73.4322 151.699 73.4204Z" fill="#263238"/>
<path d="M155.416 61.9862C155.357 62.2871 156.236 62.5762 157.127 63.2488C158.018 63.9214 158.626 64.6117 158.897 64.4288C159.015 64.3462 159.009 64.0335 158.832 63.6146C158.593 63.0942 158.221 62.6464 157.753 62.3166C157.298 61.98 156.759 61.7758 156.195 61.7266C155.729 61.7502 155.446 61.8446 155.416 61.9862Z" fill="#263238"/>
<path d="M143.929 60.8833C144.159 61.1075 144.967 60.7712 145.959 60.665C146.95 60.5588 147.817 60.665 147.988 60.3818C148.059 60.2461 147.906 60.016 147.51 59.7918C146.98 59.5538 146.393 59.47 145.817 59.5499C145.241 59.6102 144.695 59.8333 144.242 60.193C143.911 60.5116 143.823 60.7712 143.929 60.8833Z" fill="#263238"/>
<path d="M170.261 58.7356C169.929 58.1449 169.41 57.6818 168.786 57.4199C164.956 55.3179 160.99 53.473 156.915 51.8975L155.239 52.8474C155.019 54.4795 155.289 56.1402 156.014 57.619C156.738 59.0979 157.886 60.3283 159.31 61.1546C160.455 61.7918 161.942 62.3936 162.089 63.6975C162.237 65.0014 160.827 65.969 160.03 67.0664C159.543 67.7514 159.27 68.5656 159.246 69.4058C159.222 70.246 159.448 71.0745 159.894 71.7864C160.408 72.5829 161.186 73.1847 161.664 74.0048C161.961 74.5613 162.129 75.177 162.156 75.8069C162.184 76.4367 162.07 77.0648 161.824 77.6451C161.346 78.8251 160.549 80.3768 159.464 81.0317C160.929 81.3611 162.461 81.2249 163.845 80.6421C165.23 80.0594 166.398 79.0591 167.187 77.7808C168.084 76.2586 168.154 74.4119 168.272 72.6478C168.543 68.6351 169.181 64.6556 170.178 60.7593C170.429 60.1125 170.458 59.4006 170.261 58.7356Z" fill="#263238"/>
<path d="M157.18 52.0807C156.148 53.4462 154.908 54.6408 153.505 55.6207C152.053 56.5234 150.201 56.9482 148.614 56.311C149.009 55.8744 149.41 55.4378 149.794 54.9953C146.969 56.9293 143.772 58.2517 140.407 58.8775C142.519 56.311 144.696 53.6914 147.581 52.0335C150.466 50.3756 154.248 49.8682 157.062 51.6323" fill="#263238"/>
<path d="M170.65 67.002L161.658 73.9876C162.691 75.1145 162.29 77.9819 161.275 79.1206C160.26 80.2593 158.915 81.2328 158.52 82.7078C158.083 84.3185 158.939 85.9882 158.962 87.6579C158.998 90.0179 157.41 92.0475 156.183 94.0653C154.956 96.0831 154.071 98.7852 155.44 100.715C156.98 102.886 160.467 102.573 162.573 100.951C164.679 99.3281 165.883 96.8206 167.446 94.673C169.01 92.5254 171.452 90.8793 174.102 91.133C174.923 82.9284 173.739 74.6472 170.65 67.002Z" fill="#263238"/>
<path d="M172.155 86.4775C172.101 86.3772 172.632 85.9937 173.541 85.2621C174.824 84.2717 175.967 83.1127 176.939 81.8165C177.582 80.9331 178.092 79.9613 178.456 78.9314C178.875 77.776 179.055 76.5477 178.987 75.3206C178.893 73.9833 178.469 72.6901 177.754 71.5564C176.954 70.3146 175.942 69.224 174.762 68.335C172.343 66.4529 169.452 65.385 166.927 64.2581C164.577 63.3501 162.358 62.1318 160.331 60.6355C158.948 59.6031 157.803 58.2851 156.974 56.771C156.425 55.6795 156.337 55.001 156.419 55.001C156.502 55.001 156.815 55.5497 157.481 56.4819C158.445 57.7775 159.627 58.8955 160.974 59.7859C163.011 61.0801 165.191 62.1353 167.47 62.9306C168.756 63.4439 170.131 63.9749 171.535 64.6239C173.024 65.2936 174.431 66.1309 175.73 67.1196C177.054 68.1246 178.183 69.3621 179.063 70.7717C179.889 72.1252 180.358 73.6659 180.426 75.2498C180.466 76.6641 180.208 78.0709 179.671 79.3798C179.218 80.502 178.593 81.5469 177.819 82.4773C176.716 83.7917 175.39 84.9004 173.901 85.7518C172.833 86.3536 172.19 86.5601 172.155 86.4775Z" fill="#263238"/>
<path d="M172.326 65.2909C172.056 65.235 171.793 65.1499 171.541 65.0372C171.045 64.8543 170.361 64.577 169.458 64.2112C167.156 63.2988 164.993 62.0674 163.033 60.5532C161.065 59.0067 159.584 56.9255 158.767 54.5588C158.53 53.8433 158.389 53.0992 158.349 52.3463C158.338 52.1498 158.338 51.9529 158.349 51.7563C158.339 51.6859 158.339 51.6144 158.349 51.5439C158.439 52.5455 158.637 53.5345 158.939 54.4939C159.807 56.7839 161.279 58.7961 163.198 60.3172C165.142 61.8093 167.265 63.0521 169.517 64.0165L171.559 64.9251C171.825 65.0231 172.082 65.1456 172.326 65.2909Z" fill="#455A64"/>
<path d="M172.609 74.2228C172.573 74.2228 172.756 73.8688 172.851 73.208C172.956 72.2628 172.79 71.3073 172.373 70.4527C171.763 69.1806 170.821 68.0963 169.647 67.3139C168.355 66.3758 166.75 65.6324 165.145 64.6707C163.628 63.7689 162.269 62.6249 161.122 61.2841C160.182 60.19 159.388 58.9782 158.762 57.6792C158.344 56.8074 158.014 55.8963 157.776 54.9593C157.682 54.6289 157.646 54.3693 157.611 54.1923C157.584 54.1046 157.572 54.0127 157.576 53.9209C157.699 54.2511 157.803 54.5879 157.888 54.9298C158.17 55.8431 158.527 56.7312 158.956 57.5848C159.591 58.8593 160.384 60.0487 161.316 61.1248C162.452 62.4349 163.791 63.5544 165.281 64.4406C166.862 65.3846 168.479 66.1457 169.789 67.1133C170.992 67.9329 171.948 69.0677 172.55 70.3937C172.963 71.2872 173.1 72.2833 172.945 73.2552C172.9 73.5154 172.822 73.769 172.715 74.0104C172.662 74.1402 172.621 74.2287 172.609 74.2228Z" fill="#455A64"/>
<path d="M122.89 68.2406C122.89 68.2406 122.89 68.2052 122.943 68.1462C123.002 68.0554 123.067 67.9687 123.137 67.8866C123.408 67.5628 123.752 67.308 124.14 67.1432C124.766 66.924 125.424 66.8103 126.087 66.8069C126.848 66.7656 127.722 66.7066 128.683 66.7066C129.723 66.7251 130.762 66.6282 131.781 66.4175C132.93 66.122 133.995 65.5624 134.89 64.7832C135.876 63.9077 136.731 62.8943 137.427 61.7742C138.168 60.5601 138.843 59.3075 139.451 58.0218C140.071 56.7272 140.781 55.4773 141.575 54.2812C142.325 53.1572 143.268 52.1745 144.36 51.3784C146.241 50.0665 148.468 49.3398 150.761 49.2898C152.295 49.2365 153.822 49.5058 155.245 50.0804L155.906 50.3695L156.36 50.6291C156.49 50.6955 156.615 50.7725 156.732 50.8592C156.595 50.8139 156.462 50.7546 156.337 50.6822L155.865 50.4521L155.204 50.1925C153.786 49.6702 152.277 49.4375 150.767 49.5081C148.527 49.5894 146.359 50.3191 144.525 51.6085C143.464 52.3903 142.549 53.3529 141.823 54.4523C141.044 55.6318 140.348 56.864 139.74 58.1398C139.125 59.4359 138.442 60.6984 137.693 61.9217C136.978 63.0627 136.099 64.0924 135.085 64.9779C134.153 65.7805 133.046 66.3525 131.852 66.6476C130.813 66.8536 129.754 66.9407 128.695 66.9072C127.733 66.9072 126.872 66.9072 126.105 66.9603C125.459 66.9478 124.815 67.0415 124.199 67.2376C123.818 67.382 123.475 67.6121 123.196 67.9102C123.101 68.0265 122.998 68.1369 122.89 68.2406Z" fill="#455A64"/>
<path d="M119.279 60.281C115.739 51.3425 111.019 42.581 110.37 35.9199L103.319 36.2031C103.467 38.7814 104.393 60.2397 109.39 68.7239C114.388 77.2081 131.073 97.0439 131.073 97.0439L136.943 81.9458C136.943 81.9458 122.825 69.2254 119.279 60.281Z" fill="#FFBE9D"/>
<path d="M107.526 22.0439H104.44C104.44 22.0439 104.741 23.8611 106.139 23.9614C107.538 24.0617 107.266 23.7431 107.266 23.7431L106.954 24.0322L105.03 24.4098C105.03 24.4098 105.125 25.9084 106.393 26.1444L108.263 24.4098L107.526 22.0439Z" fill="#FFBE9D"/>
<path d="M115.975 21.7721C115.692 24.0967 115.662 23.9551 115.662 23.9551L112.842 26.2797L112.122 22.8577C112.076 22.6309 111.956 22.4259 111.781 22.2744C111.606 22.1228 111.386 22.0334 111.154 22.0199L109.874 21.9373C109.874 21.9373 110.37 20.1673 108.759 20.3148C108.759 20.3148 107.874 20.0729 107.16 23.0347C106.381 26.2738 103.03 33.8848 103.319 36.4277L110.47 36.7168C110.393 34.3568 112.34 31.8375 113.302 30.7519C113.592 30.4287 113.795 30.0367 113.892 29.6132C114.024 29.0313 114.3 28.4918 114.694 28.0438C115.579 27.0644 117.438 25.3003 117.438 25.3003V19.9136C117.438 19.9136 116.246 19.5301 115.975 21.7721ZM110.24 26.9759L108.771 27.6426L109.019 26.144L110.24 26.026V26.9759Z" fill="#FFBE9D"/>
<path d="M108.694 27.8019C108.693 27.5894 108.717 27.3776 108.765 27.1706C108.836 26.7635 108.936 26.1853 109.072 25.4655L109.567 22.9521C109.684 22.469 109.765 21.978 109.809 21.483C109.809 21.0051 109.632 20.4564 109.119 20.4269C108.606 20.3974 108.228 20.7455 107.98 21.1644C107.862 21.382 107.767 21.6114 107.697 21.8488L107.467 22.5509L106.7 24.9935C106.47 25.6897 106.257 26.2443 106.11 26.6219C106.043 26.8316 105.945 27.0303 105.821 27.2119C105.855 27.0086 105.915 26.8104 105.998 26.6219C106.122 26.2325 106.305 25.672 106.505 24.9758C106.706 24.2796 106.948 23.4182 107.207 22.5096C107.284 22.2736 107.355 22.0376 107.432 21.7957C107.503 21.5373 107.604 21.2879 107.732 21.0523C107.875 20.8034 108.063 20.5833 108.287 20.4033C108.412 20.3052 108.555 20.2332 108.708 20.1916C108.861 20.1501 109.021 20.1398 109.178 20.1614C109.336 20.1869 109.488 20.2409 109.626 20.3207C109.76 20.4138 109.869 20.5371 109.945 20.6806C110.074 20.9447 110.134 21.2367 110.122 21.5302C110.073 22.0418 109.984 22.5488 109.856 23.0465L109.266 25.554C109.107 26.262 108.971 26.8402 108.865 27.2355C108.833 27.4309 108.775 27.6213 108.694 27.8019Z" fill="#EB996E"/>
<path d="M110.157 26.9935C110.086 26.4182 110.056 25.8385 110.069 25.2589C110.069 25.0229 110.033 24.7987 110.016 24.5922C110.025 24.4368 109.977 24.2834 109.88 24.1615C109.679 24.014 109.438 24.014 109.449 23.9609C109.461 23.9078 109.502 23.9196 109.597 23.9078C109.739 23.8878 109.884 23.9147 110.01 23.9845C110.098 24.0556 110.169 24.1455 110.218 24.2475C110.267 24.3496 110.293 24.4613 110.293 24.5745C110.337 24.8023 110.365 25.033 110.376 25.2648C110.458 25.8502 110.383 26.447 110.157 26.9935Z" fill="#EB996E"/>
<path d="M113.662 25.6774C113.662 25.6774 113.467 25.937 113.072 26.2674C112.573 26.71 112.017 27.0849 111.42 27.3825C110.798 27.6524 110.133 27.8102 109.455 27.8486C109.181 27.9023 108.898 27.9023 108.623 27.8486C108.878 27.74 109.149 27.6742 109.426 27.6539C110.067 27.5572 110.694 27.3788 111.29 27.1229C111.877 26.8387 112.438 26.503 112.966 26.1199C113.367 25.8131 113.632 25.642 113.662 25.6774Z" fill="#EB996E"/>
<path d="M169.73 92.6901C169.73 92.6901 177.671 92.4541 182.426 91.0381C187.182 89.6221 205.436 85.2797 205.436 85.2797L234.73 80.3945L235.32 87.9701C235.32 87.9701 208.103 95.9292 202.817 97.7405C197.53 99.5518 173.37 107.841 168.803 106.791L165.971 100.968L169.73 92.6901Z" fill="#FFBE9D"/>
<path d="M248.813 71.4853C248.335 71.3791 245.964 72.4588 245.964 72.4588C246.19 72.1847 246.317 71.8427 246.326 71.4876C246.334 71.1324 246.223 70.7847 246.011 70.5L242.754 72.0989C241.893 72.9719 240.985 73.7972 240.034 74.571C238.536 75.9511 237.155 77.4529 235.904 79.0609L233.957 80.8722L235.167 88.0407C236.018 88.1117 236.875 87.9991 237.68 87.7103C238.689 87.2442 240.164 85.3503 240.164 85.3503L242.943 85.1143C243.266 85.0907 243.575 84.9693 243.828 84.7662C244.078 84.5219 244.271 84.2242 244.39 83.8953C244.51 83.5663 244.553 83.2146 244.518 82.8664C246.288 81.8634 245.256 80.589 245.256 80.589C245.815 80.5203 246.326 80.2394 246.683 79.8043C246.835 79.5686 246.908 79.2909 246.892 79.0111C246.876 78.7313 246.772 78.4638 246.595 78.2467C246.264 77.6567 243.716 77.8396 243.716 77.8396L243.58 77.0903C243.58 77.0903 247.474 73.9987 248.347 73.3261C249.22 72.6535 249.262 71.5856 248.813 71.4853Z" fill="#FFBE9D"/>
<path d="M246.011 72.3701C245.731 72.9293 245.327 73.4175 244.831 73.7979C244.326 74.2295 243.851 74.6947 243.409 75.1903C242.918 75.8275 242.563 76.5583 242.365 77.3379C242.16 78.1538 241.867 78.9451 241.491 79.6979C241.17 80.2999 240.773 80.8589 240.311 81.3617C239.999 81.6966 239.658 82.0027 239.291 82.2762C239.163 82.3849 239.017 82.4707 238.86 82.5299C238.825 82.4886 239.415 82.0815 240.152 81.2142C240.578 80.709 240.944 80.1567 241.244 79.5681C241.596 78.8339 241.877 78.0672 242.081 77.2789C242.288 76.4604 242.669 75.6959 243.196 75.0369C243.658 74.539 244.159 74.0793 244.695 73.6622C245.159 73.2585 245.599 72.827 246.011 72.3701Z" fill="#EB996E"/>
<path d="M244.577 82.8492C244.181 83.1178 243.742 83.3173 243.279 83.4392C242.779 83.6075 242.26 83.7145 241.733 83.7578C241.421 83.7813 241.107 83.7813 240.795 83.7578C240.439 83.733 240.095 83.615 239.798 83.4156C239.644 83.3059 239.518 83.1607 239.432 82.9923C239.346 82.8239 239.301 82.6372 239.303 82.448C239.368 82.1085 239.552 81.8034 239.822 81.5866C240.037 81.3808 240.301 81.2326 240.589 81.1559C240.848 81.0851 241.084 81.032 241.303 80.9907C241.765 80.8509 242.248 80.7949 242.73 80.8255C242.73 80.8609 242.199 80.9671 241.35 81.1972L240.665 81.3978C240.419 81.473 240.196 81.609 240.016 81.7931C239.811 81.9677 239.666 82.2033 239.603 82.4657C239.605 82.6046 239.64 82.7411 239.705 82.8634C239.771 82.9857 239.866 83.0902 239.981 83.1678C240.514 83.4452 241.119 83.5562 241.716 83.4864C242.222 83.4568 242.725 83.3738 243.214 83.2386C244.058 83.0203 244.559 82.802 244.577 82.8492Z" fill="#EB996E"/>
<path d="M245.35 80.5888C245.042 80.7612 244.699 80.8639 244.347 80.8897C243.971 80.954 243.59 80.9817 243.208 80.9723C242.958 80.9903 242.707 80.9531 242.472 80.8634C242.238 80.7737 242.026 80.6336 241.851 80.4531C241.702 80.2407 241.617 79.9897 241.606 79.7302C241.596 79.4707 241.66 79.2137 241.792 78.9899C241.991 78.6391 242.294 78.3587 242.66 78.1875C242.968 78.0078 243.317 77.9084 243.674 77.8984C243.674 77.9456 243.303 78.0636 242.766 78.3763C242.461 78.5513 242.211 78.809 242.046 79.1197C241.947 79.2947 241.898 79.4939 241.905 79.6949C241.913 79.896 241.976 80.0911 242.087 80.2584C242.237 80.4034 242.415 80.5164 242.609 80.5904C242.804 80.6645 243.012 80.6981 243.22 80.6891C243.587 80.7134 243.956 80.7134 244.323 80.6891C244.663 80.6301 245.006 80.5965 245.35 80.5888Z" fill="#EB996E"/>
<path d="M243.427 85.0144C243.169 85.1432 242.892 85.2289 242.606 85.2681C241.935 85.455 241.238 85.5385 240.541 85.5159C240.423 85.5214 240.305 85.5004 240.196 85.4545C240.087 85.4085 239.989 85.3388 239.91 85.2504C239.783 85.0809 239.718 84.8723 239.727 84.6604C239.741 84.4874 239.792 84.3194 239.878 84.1685C239.963 84.0175 240.081 83.8874 240.223 83.7872C240.742 83.4745 241.12 83.6692 241.096 83.6928C240.83 83.721 240.575 83.8142 240.353 83.9642C240.25 84.0519 240.166 84.1602 240.107 84.2821C240.048 84.404 240.015 84.5369 240.01 84.6722C240.007 84.8185 240.053 84.9617 240.14 85.0793C240.194 85.1355 240.259 85.1785 240.332 85.2052C240.404 85.2318 240.482 85.2412 240.559 85.2327C241.231 85.2479 241.903 85.1965 242.565 85.0793C242.846 85.0029 243.138 84.9809 243.427 85.0144Z" fill="#EB996E"/>
<path d="M156.26 117.842C156.09 117.973 155.904 118.08 155.705 118.16C155.183 118.404 154.64 118.601 154.083 118.75C152.228 119.292 150.271 119.389 148.372 119.034C146.475 118.676 144.692 117.866 143.174 116.674C142.718 116.317 142.294 115.922 141.905 115.494C141.755 115.341 141.624 115.171 141.516 114.986C141.563 114.945 142.141 115.647 143.286 116.508C144.807 117.629 146.558 118.397 148.413 118.756C150.268 119.105 152.178 119.042 154.006 118.573C155.416 118.213 156.225 117.8 156.26 117.842Z" fill="#6C5CE7"/>
<path d="M142.849 96.0233C142.849 96.0233 161.517 90.0525 162.213 89.8637C162.909 89.6749 179.376 91.144 179.376 91.144C179.376 91.144 178.68 102.053 182.81 105.587L170.697 109.953L166.88 120.461C166.88 120.461 164.75 124.744 166.443 128.762C169.647 136.367 175.205 148.368 174.385 149.743C174.296 149.884 173.795 145.613 165.895 143.347C163.499 142.669 159.151 142.657 155.216 143.453C138.283 146.864 131.745 154.663 129.846 156.026C129.846 156.026 133.333 128.668 131.686 124.396C130.04 120.125 128.294 117.316 129.651 113.534C131.008 109.753 133.043 103.64 133.043 103.64L126.371 96.0882L135.693 80.5889L144.224 87.6689L142.849 96.0233Z" fill="#6C5CE7"/>
<path d="M149.056 121.37C148.843 121.397 148.626 121.397 148.413 121.37C147.827 121.346 147.245 121.271 146.673 121.145C144.767 120.731 143.009 119.807 141.587 118.473C140.169 117.129 139.171 115.404 138.713 113.505C138.577 112.924 138.498 112.331 138.477 111.735C138.459 111.522 138.471 111.307 138.513 111.098C138.605 111.88 138.743 112.656 138.926 113.422C139.432 115.253 140.425 116.913 141.799 118.225C143.189 119.519 144.884 120.441 146.726 120.903C148.142 121.34 149.056 121.34 149.056 121.37Z" fill="#263238"/>
<path d="M131.527 98.2422C132.254 99.1702 132.704 100.285 132.825 101.458C133.046 102.616 132.94 103.814 132.518 104.915C132.633 103.781 132.633 102.639 132.518 101.505C132.299 100.387 131.967 99.2935 131.527 98.2422Z" fill="#263238"/>
<path d="M171.146 101.476C171.146 101.523 170.762 101.788 170.196 102.337C169.463 103.047 168.872 103.89 168.455 104.821C168.042 105.751 167.817 106.753 167.794 107.771C167.794 108.556 167.871 109.039 167.794 109.051C167.627 108.646 167.544 108.21 167.553 107.771C167.509 106.711 167.711 105.654 168.143 104.685C168.57 103.715 169.209 102.852 170.013 102.16C170.34 101.858 170.726 101.625 171.146 101.476Z" fill="#263238"/>
<g opacity="0.3">
<path d="M146.283 120.963C144.483 120.606 142.844 119.679 141.61 118.32C140.773 117.515 140.087 116.566 139.587 115.518C139.162 117.37 141.74 120.656 144.253 121.866C145.528 122.46 146.922 122.749 148.327 122.71C149.732 122.671 151.109 122.305 152.348 121.642C150.309 121.62 148.277 121.393 146.283 120.963Z" fill="black"/>
</g>
<path d="M169.146 134.521C169.146 134.556 168.656 134.185 167.688 133.748C166.311 133.154 164.828 132.845 163.328 132.84C161.097 132.826 158.888 133.274 156.838 134.155C154.352 135.275 151.981 136.635 149.758 138.214C145.661 141.055 141.291 143.48 136.713 145.454C134.943 146.203 133.504 146.74 132.495 147.088C131.993 147.271 131.598 147.395 131.315 147.477C131.181 147.529 131.043 147.567 130.902 147.59C131.027 147.518 131.159 147.461 131.297 147.418L132.442 146.976C133.439 146.592 134.872 146.032 136.613 145.253C141.157 143.232 145.503 140.791 149.593 137.961C151.832 136.367 154.225 135.003 156.738 133.89C158.825 133.009 161.075 132.577 163.34 132.621C164.865 132.646 166.367 132.994 167.747 133.642C168.248 133.876 168.718 134.171 169.146 134.521Z" fill="white"/>
<path d="M165.771 124.739C165.416 124.424 165.042 124.132 164.65 123.866C163.549 123.191 162.299 122.798 161.009 122.721C159.095 122.63 157.185 122.982 155.428 123.748C153.268 124.686 151.159 125.738 149.109 126.898C147.041 128.048 144.907 129.076 142.719 129.978C140.918 130.7 139.036 131.203 137.114 131.477C135.82 131.658 134.508 131.679 133.209 131.542C132.856 131.503 132.505 131.446 132.158 131.371C132.035 131.353 131.915 131.321 131.799 131.276C131.799 131.247 132.306 131.347 133.22 131.424C134.511 131.512 135.807 131.458 137.085 131.264C138.981 130.961 140.835 130.443 142.613 129.719C144.783 128.81 146.902 127.786 148.962 126.651C151.022 125.486 153.146 124.437 155.322 123.506C157.122 122.74 159.075 122.404 161.027 122.526C162.345 122.623 163.615 123.058 164.715 123.789C165.119 124.042 165.476 124.364 165.771 124.739Z" fill="white"/>
<path d="M140.849 117.305C140.849 117.305 140.725 117.429 140.472 117.611C140.318 117.725 140.156 117.828 139.988 117.918C139.773 118.05 139.55 118.168 139.321 118.272C138.725 118.552 138.103 118.772 137.463 118.927C136.677 119.114 135.874 119.217 135.067 119.234C134.258 119.232 133.452 119.147 132.66 118.98C132.016 118.847 131.388 118.65 130.784 118.39C130.552 118.293 130.325 118.183 130.105 118.06C129.934 117.975 129.77 117.877 129.616 117.765C129.356 117.594 129.22 117.488 129.232 117.47C129.244 117.452 129.822 117.794 130.866 118.19C131.466 118.416 132.084 118.591 132.713 118.715C133.492 118.857 134.282 118.926 135.073 118.921C135.857 118.903 136.637 118.81 137.404 118.644C138.031 118.502 138.645 118.304 139.238 118.054C140.247 117.647 140.814 117.257 140.849 117.305Z" fill="white"/>
<path d="M168.585 115.824C168.517 115.901 168.44 115.968 168.355 116.025C168.121 116.201 167.872 116.357 167.612 116.491C166.651 116.991 165.6 117.294 164.52 117.382C162.924 117.508 161.317 117.36 159.771 116.945C158.001 116.521 156.166 115.83 154.189 115.27C150.8 114.328 147.252 114.099 143.77 114.597C142.713 114.747 141.667 114.962 140.637 115.24C139.911 115.435 139.51 115.559 139.504 115.535C139.498 115.512 139.592 115.482 139.781 115.411C139.97 115.341 140.241 115.234 140.607 115.128C141.63 114.804 142.675 114.555 143.734 114.385C147.248 113.815 150.844 114.016 154.272 114.975C156.266 115.565 158.107 116.237 159.835 116.668C161.353 117.09 162.93 117.258 164.502 117.164C165.56 117.095 166.597 116.831 167.558 116.385C168.237 116.06 168.567 115.795 168.585 115.824Z" fill="white"/>
<path d="M168.095 106.969C167.972 107.002 167.845 107.022 167.718 107.028C167.47 107.028 167.128 107.098 166.626 107.134C165.285 107.167 163.943 107.07 162.62 106.845C160.945 106.573 158.986 106.078 156.826 105.494C154.511 104.807 152.143 104.314 149.746 104.019C149.117 103.967 148.484 103.947 147.852 103.96C147.54 103.96 147.233 103.96 146.926 103.989L146.023 104.095C144.874 104.258 143.745 104.541 142.655 104.939C140.554 105.682 138.719 106.538 137.109 107.081C135.848 107.543 134.53 107.833 133.191 107.942C132.828 107.975 132.463 107.975 132.099 107.942C131.971 107.946 131.842 107.934 131.716 107.907C131.844 107.897 131.972 107.897 132.099 107.907C132.46 107.908 132.821 107.887 133.179 107.842C134.5 107.689 135.797 107.369 137.038 106.892C138.625 106.331 140.442 105.458 142.56 104.691C143.665 104.28 144.81 103.985 145.976 103.812L146.903 103.7C147.215 103.7 147.528 103.7 147.847 103.7C148.488 103.687 149.13 103.707 149.77 103.759C152.188 104.056 154.576 104.56 156.909 105.263C159.062 105.853 161.004 106.384 162.667 106.679C163.975 106.923 165.302 107.049 166.632 107.057L167.718 107.016C167.841 106.985 167.968 106.969 168.095 106.969Z" fill="white"/>
<path d="M173.96 91.1387C174.013 91.1682 173.411 92.0296 172.845 93.5931C172.103 95.633 171.9 97.8296 172.255 99.971C172.64 102.105 173.557 104.108 174.922 105.794C175.972 107.086 176.816 107.712 176.774 107.759C176.562 107.641 176.364 107.498 176.184 107.334C175.67 106.909 175.194 106.439 174.762 105.93C173.319 104.248 172.349 102.211 171.954 100.03C171.588 97.8456 171.821 95.603 172.627 93.54C172.871 92.9248 173.169 92.3325 173.517 91.77C173.64 91.5429 173.788 91.331 173.96 91.1387Z" fill="white"/>
<path d="M142.837 93.0202C142.672 93.089 142.497 93.1289 142.318 93.1382C141.836 93.2184 141.349 93.2716 140.861 93.2975C140.131 93.3446 139.398 93.287 138.684 93.1264C137.785 92.9219 136.965 92.4607 136.324 91.7989C135.639 91.1263 135.144 90.3947 134.595 89.787C134.141 89.2449 133.603 88.7788 133.002 88.4064C132.438 88.0825 131.805 87.8965 131.155 87.8636C131.327 87.8027 131.511 87.7825 131.692 87.8046C132.19 87.8328 132.674 87.974 133.108 88.2176C133.753 88.5753 134.328 89.0448 134.808 89.6041C135.356 90.1941 135.881 90.9375 136.536 91.5806C137.135 92.1986 137.892 92.6395 138.725 92.855C139.413 93.0205 140.119 93.0959 140.826 93.0792C142.1 93.0202 142.837 92.9435 142.837 93.0202Z" fill="white"/>
<path d="M141.652 272.687C141.569 272.687 141.498 266.504 141.498 258.875C141.498 251.247 141.569 245.063 141.652 245.063C141.734 245.063 141.805 251.247 141.805 258.875C141.805 266.504 141.74 272.687 141.652 272.687Z" fill="#263238"/>
<path d="M144.265 265.59C144.177 265.59 144.112 259.406 144.112 251.778C144.112 244.149 144.177 237.966 144.265 237.966C144.354 237.966 144.419 244.149 144.419 251.778C144.419 259.406 144.348 265.59 144.265 265.59Z" fill="#263238"/>
<path d="M266.189 281.898C266.189 281.98 213.266 282.051 148.006 282.051C82.746 282.051 29.8112 281.98 29.8112 281.898C29.8112 281.815 82.7224 281.744 148.006 281.744C213.289 281.744 266.189 281.821 266.189 281.898Z" fill="#263238"/>
</svg>
