<svg width="129" height="32" viewBox="0 0 129 32" fill="none" xmlns="http://www.w3.org/2000/svg">
<path d="M20.0816 14.5138L32.2892 14.5224V20.0204L0.196194 20.0032V14.5052L12.4082 14.5138V12.6239H5.18825C4.66507 12.6196 4.24652 12.4478 3.89773 12.0698L1.9445 10.0424C1.59571 9.66443 1.42132 9.28644 1.42132 8.77101V3.7455L0 0L31.0772 0.0171812V5.34336L9.09906 5.33047V7.28913L31.2472 7.30201V12.6282H20.0816V14.5138ZM1.2382 26.8714V21.5452L31.0641 21.5624V31.9399H23.3864V26.8843L1.24256 26.8714H1.2382Z" fill="#6C5CE7"/>
<path d="M36.7537 17.3747C36.2306 17.3747 35.812 17.2029 35.4632 16.8249L33.51 14.7975C33.1612 14.4195 32.9868 14.0415 32.9868 13.5261V6.61927L45.9313 6.62786V5.35645L32.9912 5.34786V0.537119L49.6677 0.54571C50.1909 0.54571 50.6094 0.717522 50.9582 1.09551L52.9114 3.12289C53.2602 3.50088 53.4346 3.87886 53.4346 4.3943V11.2668L40.4902 11.2582V12.564L54.3022 12.5726V17.3833L36.7537 17.3747V17.3747ZM64.0291 17.7355H56.3557L56.3645 3.78007L54.5856 0.0302734H64.0379L64.0291 17.7312V17.7355Z" fill="#6C5CE7"/>
<path d="M84.8955 3.79726C85.2094 4.20961 85.3838 4.5876 85.314 5.10303L81.4992 30.4281L73.7909 31.1111L77.5709 6.91995H66.4794L65.4374 0.554308L81.5864 0.562899C82.1444 0.562899 82.563 0.769073 82.8769 1.18142L84.8999 3.79297H84.8955V3.79726ZM94.9755 31.9873H87.3022L87.3196 3.80585L85.5408 0.0517578H94.993L94.9755 31.9787V31.9873Z" fill="#6C5CE7"/>
<path d="M109.773 13.844L115.075 14.5699L119.914 30.9651H112.38L108.517 17.7613L104.288 30.9565H96.7544L104.441 6.93713H97.4302V0.575793L118.955 0.588678V6.94573H111.975L109.773 13.8483V13.844ZM128.983 31.9959H121.309L121.327 3.81445L119.548 0.0732422H129L128.983 32.0002V31.9959Z" fill="#6C5CE7"/>
<path d="M64.1773 18.251V31.721H33.4228V18.251H40.8346V20.5876H56.7656V18.251H64.1773V18.251ZM35.1929 26.1887C44.4576 26.2574 49.2361 27.8381 49.2361 31.2056C49.2361 27.8381 53.9796 26.2231 63.24 26.1543C53.9752 26.0856 49.2361 24.5049 49.2361 21.1031C49.2361 24.5049 44.4576 26.12 35.1929 26.1887V26.1887Z" fill="#6C5CE7"/>
</svg>
